<svg width="223" height="721" viewBox="0 0 223 721" fill="none" xmlns="http://www.w3.org/2000/svg">
<g id="BG">
<mask id="mask0_115_171" style="mask-type:alpha" maskUnits="userSpaceOnUse" x="0" y="0" width="223" height="721">
<rect id="Rectangle 63" width="223" height="721" fill="#F3D496"/>
</mask>
<g mask="url(#mask0_115_171)">
<g id="menuBg">
<g id="Group 2">
<ellipse id="Ellipse 11" cx="170.173" cy="303.426" rx="21.0483" ry="20.3906" fill="white"/>
<g id="Subtract">
<mask id="path-3-inside-1_115_171" fill="white">
<path fill-rule="evenodd" clip-rule="evenodd" d="M172.492 335.848C169.269 327.144 156.959 327.144 153.736 335.848L153.524 336.421C151.282 342.476 143.973 344.851 138.6 341.27L138.092 340.931C130.368 335.783 120.409 343.019 122.918 351.955L123.083 352.543C124.829 358.761 120.312 364.978 113.859 365.238L113.249 365.263C103.975 365.638 100.171 377.347 107.453 383.101L107.932 383.48C112.999 387.484 112.999 395.168 107.932 399.172L107.453 399.551C100.171 405.305 103.975 417.013 113.249 417.388L113.859 417.413C120.312 417.674 124.829 423.891 123.083 430.108L122.918 430.696C120.409 439.632 130.368 446.868 138.092 441.721L138.6 441.382C143.973 437.801 151.282 440.175 153.524 446.231L153.736 446.804C156.959 455.508 169.269 455.508 172.492 446.804L172.704 446.231C174.946 440.175 182.255 437.801 187.628 441.382L188.136 441.721C195.859 446.868 205.819 439.632 203.31 430.696L203.145 430.108C201.399 423.891 205.916 417.674 212.368 417.413L212.979 417.388C222.253 417.013 226.057 405.305 218.775 399.551L218.295 399.172C213.229 395.168 213.229 387.484 218.295 383.48L218.775 383.101C226.057 377.347 222.253 365.638 212.979 365.263L212.368 365.238C205.916 364.978 201.399 358.761 203.145 352.543L203.31 351.955C205.819 343.019 195.859 335.783 188.136 340.931L187.628 341.27C182.255 344.851 174.946 342.476 172.704 336.421L172.492 335.848ZM163.883 416.723C177.485 416.723 188.511 405.697 188.511 392.095C188.511 378.494 177.485 367.468 163.883 367.468C150.282 367.468 139.256 378.494 139.256 392.095C139.256 405.697 150.282 416.723 163.883 416.723Z"/>
</mask>
<path d="M153.736 335.848L155.612 336.542L155.612 336.542L153.736 335.848ZM172.492 335.848L170.616 336.542L170.616 336.542L172.492 335.848ZM153.524 336.421L151.648 335.726L151.648 335.726L153.524 336.421ZM138.6 341.27L137.491 342.934L137.491 342.934L138.6 341.27ZM138.092 340.931L139.201 339.267L139.201 339.267L138.092 340.931ZM122.918 351.955L120.992 352.496L120.992 352.496L122.918 351.955ZM123.083 352.543L125.008 352.003L125.008 352.003L123.083 352.543ZM113.859 365.238L113.94 367.237L113.94 367.237L113.859 365.238ZM113.249 365.263L113.168 363.265L113.168 363.265L113.249 365.263ZM107.453 383.101L106.213 384.67L106.213 384.67L107.453 383.101ZM107.932 383.48L109.172 381.911L109.172 381.911L107.932 383.48ZM107.932 399.172L106.692 397.603L106.692 397.603L107.932 399.172ZM107.453 399.551L108.693 401.12L108.693 401.12L107.453 399.551ZM113.249 417.388L113.168 419.387L113.168 419.387L113.249 417.388ZM113.859 417.413L113.94 415.415L113.94 415.415L113.859 417.413ZM123.083 430.108L125.008 430.649L125.008 430.649L123.083 430.108ZM122.918 430.696L120.992 430.156L120.992 430.156L122.918 430.696ZM138.092 441.721L136.982 440.057L136.982 440.057L138.092 441.721ZM138.6 441.382L139.709 443.046L139.709 443.046L138.6 441.382ZM153.524 446.231L151.648 446.926L151.648 446.926L153.524 446.231ZM153.736 446.804L155.612 446.11L155.612 446.11L153.736 446.804ZM172.492 446.804L170.616 446.11L170.616 446.11L172.492 446.804ZM172.704 446.231L174.58 446.926L174.58 446.926L172.704 446.231ZM187.628 441.382L188.737 439.718L188.737 439.718L187.628 441.382ZM188.136 441.721L187.027 443.385L187.027 443.385L188.136 441.721ZM203.31 430.696L205.236 430.156L205.236 430.156L203.31 430.696ZM203.145 430.108L201.219 430.649L201.219 430.649L203.145 430.108ZM212.368 417.413L212.288 415.415L212.288 415.415L212.368 417.413ZM212.979 417.388L213.06 419.387L213.06 419.387L212.979 417.388ZM218.775 399.551L220.015 397.981L220.015 397.981L218.775 399.551ZM218.295 399.172L217.055 400.741L217.055 400.741L218.295 399.172ZM218.295 383.48L217.055 381.911L217.055 381.911L218.295 383.48ZM218.775 383.101L220.015 384.67L220.015 384.67L218.775 383.101ZM212.979 365.263L213.06 363.265L213.06 363.265L212.979 365.263ZM212.368 365.238L212.288 367.237L212.288 367.237L212.368 365.238ZM203.145 352.543L201.219 352.003L201.219 352.003L203.145 352.543ZM203.31 351.955L205.236 352.496L205.236 352.496L203.31 351.955ZM188.136 340.931L189.246 342.595L189.246 342.595L188.136 340.931ZM187.628 341.27L186.519 339.605L186.519 339.605L187.628 341.27ZM172.704 336.421L174.58 335.726L174.58 335.726L172.704 336.421ZM155.612 336.542C158.19 329.579 168.038 329.579 170.616 336.542L174.367 335.153C170.5 324.708 155.727 324.708 151.86 335.153L155.612 336.542ZM155.399 337.115L155.612 336.542L151.86 335.153L151.648 335.726L155.399 337.115ZM137.491 342.934C143.939 347.232 152.709 344.382 155.399 337.115L151.648 335.726C149.855 340.571 144.008 342.471 139.709 339.605L137.491 342.934ZM136.982 342.595L137.491 342.934L139.709 339.605L139.201 339.267L136.982 342.595ZM124.843 351.415C122.836 344.266 130.804 338.477 136.982 342.595L139.201 339.267C129.933 333.09 117.981 341.773 120.992 352.496L124.843 351.415ZM125.008 352.003L124.843 351.415L120.992 352.496L121.157 353.084L125.008 352.003ZM113.94 367.237C121.683 366.924 127.103 359.463 125.008 352.003L121.157 353.084C122.554 358.058 118.94 363.031 113.779 363.24L113.94 367.237ZM113.33 367.262L113.94 367.237L113.779 363.24L113.168 363.265L113.33 367.262ZM108.693 381.532C102.867 376.928 105.911 367.562 113.33 367.262L113.168 363.265C102.04 363.715 97.4745 377.765 106.213 384.67L108.693 381.532ZM109.172 381.911L108.693 381.532L106.213 384.67L106.692 385.049L109.172 381.911ZM109.172 400.741C115.252 395.937 115.252 386.715 109.172 381.911L106.692 385.049C110.746 388.252 110.746 394.4 106.692 397.603L109.172 400.741ZM108.693 401.12L109.172 400.741L106.692 397.603L106.213 397.981L108.693 401.12ZM113.33 415.39C105.911 415.09 102.867 405.723 108.693 401.12L106.213 397.981C97.4745 404.887 102.04 418.937 113.168 419.387L113.33 415.39ZM113.94 415.415L113.33 415.39L113.168 419.387L113.779 419.411L113.94 415.415ZM125.008 430.649C127.103 423.188 121.683 415.728 113.94 415.415L113.779 419.411C118.94 419.62 122.554 424.594 121.157 429.568L125.008 430.649ZM124.843 431.237L125.008 430.649L121.157 429.568L120.992 430.156L124.843 431.237ZM136.982 440.057C130.804 444.175 122.836 438.386 124.843 431.237L120.992 430.156C117.981 440.879 129.933 449.562 139.201 443.385L136.982 440.057ZM137.491 439.718L136.982 440.057L139.201 443.385L139.709 443.046L137.491 439.718ZM155.399 445.537C152.709 438.27 143.939 435.42 137.491 439.718L139.709 443.046C144.008 440.181 149.855 442.081 151.648 446.926L155.399 445.537ZM155.612 446.11L155.399 445.537L151.648 446.926L151.86 447.498L155.612 446.11ZM170.616 446.11C168.038 453.073 158.19 453.073 155.612 446.11L151.86 447.498C155.727 457.943 170.5 457.943 174.367 447.498L170.616 446.11ZM170.828 445.537L170.616 446.11L174.367 447.498L174.58 446.926L170.828 445.537ZM188.737 439.718C182.289 435.42 173.519 438.27 170.828 445.537L174.58 446.926C176.373 442.081 182.22 440.181 186.519 443.046L188.737 439.718ZM189.246 440.057L188.737 439.718L186.519 443.046L187.027 443.385L189.246 440.057ZM201.385 431.237C203.392 438.386 195.424 444.175 189.246 440.057L187.027 443.385C196.295 449.562 208.246 440.879 205.236 430.156L201.385 431.237ZM201.219 430.649L201.385 431.237L205.236 430.156L205.07 429.568L201.219 430.649ZM212.288 415.415C204.545 415.728 199.125 423.188 201.219 430.649L205.07 429.568C203.674 424.594 207.287 419.62 212.449 419.411L212.288 415.415ZM212.898 415.39L212.288 415.415L212.449 419.411L213.06 419.387L212.898 415.39ZM217.535 401.12C223.361 405.723 220.317 415.09 212.898 415.39L213.06 419.387C224.188 418.937 228.753 404.887 220.015 397.981L217.535 401.12ZM217.055 400.741L217.535 401.12L220.015 397.981L219.535 397.603L217.055 400.741ZM217.055 381.911C210.975 386.715 210.975 395.937 217.055 400.741L219.535 397.603C215.482 394.4 215.482 388.252 219.535 385.049L217.055 381.911ZM217.535 381.532L217.055 381.911L219.535 385.049L220.015 384.67L217.535 381.532ZM212.898 367.262C220.317 367.562 223.361 376.928 217.535 381.532L220.015 384.67C228.753 377.765 224.188 363.715 213.06 363.265L212.898 367.262ZM212.288 367.237L212.898 367.262L213.06 363.265L212.449 363.24L212.288 367.237ZM201.219 352.003C199.125 359.463 204.545 366.924 212.288 367.237L212.449 363.24C207.287 363.031 203.674 358.058 205.07 353.084L201.219 352.003ZM201.385 351.415L201.219 352.003L205.07 353.084L205.236 352.496L201.385 351.415ZM189.246 342.595C195.424 338.477 203.392 344.266 201.385 351.415L205.236 352.496C208.246 341.773 196.295 333.09 187.027 339.267L189.246 342.595ZM188.737 342.934L189.246 342.595L187.027 339.267L186.519 339.605L188.737 342.934ZM170.828 337.115C173.519 344.382 182.289 347.232 188.737 342.934L186.519 339.605C182.22 342.471 176.373 340.571 174.58 335.726L170.828 337.115ZM170.616 336.542L170.828 337.115L174.58 335.726L174.367 335.153L170.616 336.542ZM186.511 392.095C186.511 404.592 176.38 414.723 163.883 414.723V418.723C178.589 418.723 190.511 406.801 190.511 392.095H186.511ZM163.883 369.468C176.38 369.468 186.511 379.599 186.511 392.095H190.511C190.511 377.39 178.589 365.468 163.883 365.468V369.468ZM141.256 392.095C141.256 379.599 151.387 369.468 163.883 369.468V365.468C149.178 365.468 137.256 377.39 137.256 392.095H141.256ZM163.883 414.723C151.387 414.723 141.256 404.592 141.256 392.095H137.256C137.256 406.801 149.178 418.723 163.883 418.723V414.723Z" fill="#2B2E32" mask="url(#path-3-inside-1_115_171)"/>
</g>
<g id="Subtract_2">
<mask id="path-5-inside-2_115_171" fill="white">
<path fill-rule="evenodd" clip-rule="evenodd" d="M181.995 257.001C180.416 252.572 174.153 252.572 172.575 257.001L170.705 262.247C169.604 265.336 165.878 266.547 163.172 264.695L158.575 261.549C154.695 258.894 149.628 262.575 150.955 267.086L152.526 272.429C153.451 275.575 151.148 278.745 147.87 278.838L142.303 278.995C137.603 279.127 135.667 285.084 139.392 287.953L143.803 291.352C146.401 293.354 146.401 297.272 143.803 299.274L139.392 302.673C135.667 305.543 137.603 311.499 142.303 311.632L147.87 311.789C151.148 311.881 153.451 315.051 152.526 318.197L150.955 323.54C149.628 328.051 154.695 331.732 158.575 329.077L163.172 325.932C165.878 324.08 169.604 325.291 170.705 328.38L172.575 333.626C174.153 338.055 180.416 338.055 181.995 333.626L183.864 328.38C184.965 325.291 188.691 324.08 191.398 325.932L195.994 329.077C199.874 331.732 204.941 328.051 203.615 323.54L202.044 318.197C201.118 315.051 203.422 311.881 206.7 311.789L212.267 311.632C216.966 311.499 218.902 305.543 215.178 302.673L210.766 299.274C208.168 297.272 208.168 293.354 210.766 291.352L215.178 287.953C218.902 285.084 216.966 279.127 212.267 278.995L206.7 278.838C203.422 278.745 201.118 275.575 202.044 272.429L203.615 267.086C204.941 262.575 199.874 258.894 195.994 261.549L191.398 264.695C188.691 266.547 184.965 265.336 183.864 262.247L181.995 257.001ZM177.775 311.508C186.448 311.508 193.479 304.477 193.479 295.804C193.479 287.131 186.448 280.1 177.775 280.1C169.102 280.1 162.071 287.131 162.071 295.804C162.071 304.477 169.102 311.508 177.775 311.508Z"/>
</mask>
<path d="M172.575 257.001L171.633 256.665V256.665L172.575 257.001ZM181.995 257.001L182.936 256.665L182.936 256.665L181.995 257.001ZM170.705 262.247L171.647 262.582H171.647L170.705 262.247ZM163.172 264.695L162.607 265.52L163.172 264.695ZM158.575 261.549L158.011 262.374L158.575 261.549ZM150.955 267.086L149.995 267.368L150.955 267.086ZM152.526 272.429L153.485 272.147L152.526 272.429ZM147.87 278.838L147.842 277.838L147.87 278.838ZM142.303 278.995L142.331 279.994L142.303 278.995ZM139.392 287.953L138.781 288.745H138.781L139.392 287.953ZM143.803 291.352L144.414 290.56H144.414L143.803 291.352ZM143.803 299.274L143.193 298.482L143.803 299.274ZM139.392 302.673L140.002 303.465H140.002L139.392 302.673ZM142.303 311.632L142.331 310.632L142.303 311.632ZM147.87 311.789L147.842 312.788L147.87 311.789ZM152.526 318.197L153.485 318.479L152.526 318.197ZM150.955 323.54L151.914 323.822L150.955 323.54ZM158.575 329.077L158.011 328.252H158.011L158.575 329.077ZM163.172 325.932L163.736 326.757L163.172 325.932ZM170.705 328.38L171.647 328.044V328.044L170.705 328.38ZM172.575 333.626L171.633 333.962L172.575 333.626ZM181.995 333.626L182.936 333.962L181.995 333.626ZM183.864 328.38L182.922 328.044V328.044L183.864 328.38ZM191.398 325.932L190.833 326.757L191.398 325.932ZM195.994 329.077L195.429 329.902L195.994 329.077ZM203.615 323.54L202.655 323.822L203.615 323.54ZM202.044 318.197L203.003 317.915L202.044 318.197ZM206.7 311.789L206.728 312.788L206.7 311.789ZM212.267 311.632L212.239 310.632L212.267 311.632ZM215.178 302.673L215.788 301.881L215.178 302.673ZM210.766 299.274L210.156 300.066V300.066L210.766 299.274ZM210.766 291.352L211.376 292.145L210.766 291.352ZM215.178 287.953L214.567 287.161L215.178 287.953ZM212.267 278.995L212.239 279.994L212.267 278.995ZM206.7 278.838L206.728 277.838L206.7 278.838ZM202.044 272.429L201.084 272.147L202.044 272.429ZM203.615 267.086L204.574 267.368V267.368L203.615 267.086ZM195.994 261.549L195.429 260.724V260.724L195.994 261.549ZM191.398 264.695L191.963 265.52L191.398 264.695ZM183.864 262.247L182.922 262.582L183.864 262.247ZM173.517 257.336C174.779 253.793 179.79 253.793 181.053 257.336L182.936 256.665C181.043 251.35 173.527 251.35 171.633 256.665L173.517 257.336ZM171.647 262.582L173.517 257.336L171.633 256.665L169.763 261.911L171.647 262.582ZM162.607 265.52C165.854 267.742 170.326 266.289 171.647 262.582L169.763 261.911C168.883 264.382 165.901 265.351 163.736 263.869L162.607 265.52ZM158.011 262.374L162.607 265.52L163.736 263.869L159.14 260.724L158.011 262.374ZM151.914 266.804C150.853 263.195 154.907 260.25 158.011 262.374L159.14 260.724C154.484 257.538 148.404 261.955 149.995 267.368L151.914 266.804ZM153.485 272.147L151.914 266.804L149.995 267.368L151.566 272.711L153.485 272.147ZM147.898 279.837C151.832 279.726 154.595 275.922 153.485 272.147L151.566 272.711C152.306 275.228 150.464 277.764 147.842 277.838L147.898 279.837ZM142.331 279.994L147.898 279.837L147.842 277.838L142.274 277.995L142.331 279.994ZM140.002 287.161C137.023 284.865 138.571 280.1 142.331 279.994L142.274 277.995C136.635 278.154 134.312 285.302 138.781 288.745L140.002 287.161ZM144.414 290.56L140.002 287.161L138.781 288.745L143.193 292.145L144.414 290.56ZM144.414 300.066C147.531 297.664 147.531 292.962 144.414 290.56L143.193 292.145C145.271 293.746 145.271 296.88 143.193 298.482L144.414 300.066ZM140.002 303.465L144.414 300.066L143.193 298.482L138.781 301.881L140.002 303.465ZM142.331 310.632C138.571 310.526 137.023 305.761 140.002 303.465L138.781 301.881C134.312 305.324 136.635 312.472 142.274 312.631L142.331 310.632ZM147.898 310.789L142.331 310.632L142.274 312.631L147.842 312.788L147.898 310.789ZM153.485 318.479C154.595 314.704 151.832 310.9 147.898 310.789L147.842 312.788C150.464 312.862 152.306 315.398 151.566 317.915L153.485 318.479ZM151.914 323.822L153.485 318.479L151.566 317.915L149.995 323.258L151.914 323.822ZM158.011 328.252C154.907 330.376 150.853 327.431 151.914 323.822L149.995 323.258C148.404 328.671 154.484 333.089 159.14 329.902L158.011 328.252ZM162.607 325.107L158.011 328.252L159.14 329.902L163.736 326.757L162.607 325.107ZM171.647 328.044C170.326 324.337 165.854 322.884 162.607 325.107L163.736 326.757C165.901 325.275 168.883 326.244 169.763 328.715L171.647 328.044ZM173.517 333.29L171.647 328.044L169.763 328.715L171.633 333.962L173.517 333.29ZM181.053 333.29C179.79 336.833 174.779 336.833 173.517 333.29L171.633 333.962C173.527 339.276 181.043 339.276 182.936 333.962L181.053 333.29ZM182.922 328.044L181.053 333.29L182.936 333.962L184.806 328.715L182.922 328.044ZM191.963 325.107C188.715 322.884 184.243 324.337 182.922 328.044L184.806 328.715C185.687 326.244 188.668 325.275 190.833 326.757L191.963 325.107ZM196.559 328.252L191.963 325.107L190.833 326.757L195.429 329.902L196.559 328.252ZM202.655 323.822C203.716 327.431 199.663 330.376 196.559 328.252L195.429 329.902C200.085 333.089 206.166 328.671 204.574 323.258L202.655 323.822ZM201.084 318.479L202.655 323.822L204.574 323.258L203.003 317.915L201.084 318.479ZM206.671 310.789C202.738 310.9 199.974 314.704 201.084 318.479L203.003 317.915C202.263 315.398 204.105 312.862 206.728 312.788L206.671 310.789ZM212.239 310.632L206.671 310.789L206.728 312.788L212.295 312.631L212.239 310.632ZM214.567 303.465C217.547 305.761 215.998 310.526 212.239 310.632L212.295 312.631C217.935 312.472 220.257 305.324 215.788 301.881L214.567 303.465ZM210.156 300.066L214.567 303.465L215.788 301.881L211.376 298.482L210.156 300.066ZM210.156 290.56C207.038 292.962 207.038 297.664 210.156 300.066L211.376 298.482C209.298 296.88 209.298 293.746 211.376 292.145L210.156 290.56ZM214.567 287.161L210.156 290.56L211.376 292.145L215.788 288.745L214.567 287.161ZM212.239 279.994C215.998 280.1 217.547 284.865 214.567 287.161L215.788 288.745C220.257 285.302 217.935 278.154 212.295 277.995L212.239 279.994ZM206.671 279.837L212.239 279.994L212.295 277.995L206.728 277.838L206.671 279.837ZM201.084 272.147C199.974 275.922 202.738 279.726 206.671 279.837L206.728 277.838C204.105 277.764 202.263 275.228 203.003 272.711L201.084 272.147ZM202.655 266.804L201.084 272.147L203.003 272.711L204.574 267.368L202.655 266.804ZM196.559 262.374C199.663 260.25 203.716 263.195 202.655 266.804L204.574 267.368C206.166 261.955 200.085 257.538 195.429 260.724L196.559 262.374ZM191.963 265.52L196.559 262.374L195.429 260.724L190.833 263.869L191.963 265.52ZM182.922 262.582C184.243 266.289 188.715 267.742 191.963 265.52L190.833 263.869C188.668 265.351 185.687 264.382 184.806 261.911L182.922 262.582ZM181.053 257.336L182.922 262.582L184.806 261.911L182.936 256.665L181.053 257.336ZM192.479 295.804C192.479 303.925 185.896 310.508 177.775 310.508V312.508C187.001 312.508 194.479 305.029 194.479 295.804H192.479ZM177.775 281.1C185.896 281.1 192.479 287.683 192.479 295.804H194.479C194.479 286.579 187.001 279.1 177.775 279.1V281.1ZM163.071 295.804C163.071 287.683 169.655 281.1 177.775 281.1V279.1C168.55 279.1 161.071 286.579 161.071 295.804H163.071ZM177.775 310.508C169.655 310.508 163.071 303.925 163.071 295.804H161.071C161.071 305.029 168.55 312.508 177.775 312.508V310.508Z" fill="#2B2E32" mask="url(#path-5-inside-2_115_171)"/>
</g>
<path id="Line 7" d="M167.076 255.826L166.371 189.548C166.335 186.209 169.032 183.484 172.37 183.484L237.879 183.484" stroke="white" stroke-width="2"/>
<path id="Line 8" d="M238.431 141.698L172.084 141.691C168.771 141.691 166.085 139.005 166.085 135.691L166.085 72.2734C166.085 68.9597 163.398 66.2734 160.085 66.2734L96.053 66.2734" stroke="white" stroke-width="2"/>
<path id="Line 9" d="M244.586 104.753L235.194 104.753C231.88 104.753 229.194 107.44 229.194 110.753V114.915C229.194 118.229 226.508 120.915 223.194 120.915H201.331C198.018 120.915 195.331 123.601 195.331 126.915L195.331 151.856C195.331 155.17 192.645 157.856 189.331 157.856L159.773 157.856C156.459 157.856 153.773 155.17 153.773 151.856L153.773 141.698L153.773 122.297C153.773 118.984 151.087 116.297 147.773 116.297L126.68 116.297C123.366 116.297 120.68 113.611 120.68 110.297L120.68 89.9742C120.68 86.6605 117.994 83.9742 114.68 83.9742L65.1121 83.9742C61.7984 83.9742 59.1121 81.2879 59.1121 77.9742L59.1121 69.3518" stroke="white"/>
<path id="Line 10" d="M50.6465 67.8125L50.6465 71.0477C50.6465 74.3614 47.9602 77.0477 44.6465 77.0477L40.4849 77.0477C37.1712 77.0477 34.4849 79.734 34.4849 83.0477L34.4849 87.2093C34.4849 90.523 37.1712 93.2093 40.4849 93.2093L60.8081 93.2093C64.1218 93.2093 66.8081 90.523 66.8081 87.2093L66.8081 83.8172C66.8081 80.5035 69.4944 77.8172 72.8081 77.8172L101.597 77.8172C104.911 77.8172 107.597 80.5035 107.597 83.8172L107.597 118.763C107.597 122.077 110.283 124.763 113.597 124.763L183.559 124.763C186.872 124.763 189.559 127.449 189.559 130.763L189.559 153.779C189.559 157.093 186.873 159.779 183.559 159.779L173.401 159.779L154 159.779C150.687 159.779 148 162.465 148 165.779L148 186.872C148 190.186 145.314 192.872 142 192.872L121.677 192.872C118.363 192.872 115.677 195.558 115.677 198.872L115.677 248.44C115.677 251.754 118.364 254.44 121.677 254.44L166.856 254.44" stroke="white"/>
<path id="Line 11" d="M459.304 139L350.442 139.001C347.128 139.001 344.442 136.315 344.442 133.001L344.442 128.84C344.442 125.526 341.756 122.839 338.442 122.839L334.28 122.839C330.967 122.839 328.28 125.526 328.28 128.839L328.28 149.163C328.28 152.476 330.967 155.163 334.28 155.163L337.672 155.163C340.986 155.163 343.672 157.849 343.672 161.163L343.672 189.951C343.672 193.265 340.986 195.951 337.672 195.951L302.727 195.951C299.413 195.951 296.727 198.638 296.727 201.951L296.727 271.913C296.727 275.227 294.04 277.913 290.727 277.913L267.711 277.913C264.397 277.913 261.71 275.227 261.711 271.913L261.711 261.756L261.711 242.355C261.711 239.041 259.024 236.355 255.71 236.355L234.618 236.355C231.304 236.355 228.618 233.669 228.618 230.355L228.618 210.032C228.618 206.718 225.931 204.032 222.618 204.032L173.05 204.032C169.736 204.032 167.05 206.718 167.05 210.032L167.05 255.211" stroke="white"/>
<path id="Line 17" d="M32.9194 229.798L-75.943 229.799C-79.2567 229.799 -81.943 227.112 -81.943 223.799L-81.943 219.637C-81.943 216.323 -84.6293 213.637 -87.943 213.637L-92.1046 213.637C-95.4183 213.637 -98.1046 216.323 -98.1046 219.637L-98.1046 239.96C-98.1046 243.274 -95.4183 245.96 -92.1046 245.96L-88.7126 245.96C-85.3989 245.96 -82.7126 248.647 -82.7126 251.96L-82.7125 280.749C-82.7125 284.063 -85.3988 286.749 -88.7125 286.749L-123.658 286.749C-126.972 286.749 -129.658 289.435 -129.658 292.749L-129.658 362.711C-129.658 366.025 -132.344 368.711 -135.658 368.711L-158.674 368.711C-161.988 368.711 -164.674 366.025 -164.674 362.711L-164.674 352.554L-164.674 333.153C-164.674 329.839 -167.361 327.153 -170.674 327.153L-191.767 327.153C-195.081 327.153 -197.767 324.466 -197.767 321.153L-197.767 300.829C-197.767 297.516 -200.453 294.829 -203.767 294.829L-253.335 294.83C-256.649 294.83 -259.335 297.516 -259.335 300.83L-259.335 346.009" stroke="white"/>
<path id="Line 12" d="M78.3524 54.7296L138.538 54.7296C141.852 54.7296 144.538 57.4159 144.538 60.7296L144.538 78.744C144.538 82.0578 147.224 84.744 150.538 84.744L227.812 84.744C231.126 84.744 233.812 87.4303 233.812 90.744L233.812 114.915C233.812 118.229 236.498 120.915 239.812 120.915L269.081 120.915C272.395 120.915 275.081 123.601 275.081 126.915L275.081 162.63C275.081 165.944 272.395 168.63 269.081 168.63L244.429 168.63C241.116 168.63 238.429 171.317 238.429 174.63L238.429 199.763C238.429 203.077 241.116 205.763 244.429 205.763L258.92 205.763L285.243 205.763C288.557 205.763 291.243 203.077 291.243 199.763L291.243 196.371C291.243 193.057 293.929 190.371 297.243 190.371L326.032 190.371C329.346 190.371 332.032 193.057 332.032 196.371L332.032 231.317C332.032 234.63 334.718 237.317 338.032 237.317L407.994 237.317C411.307 237.317 413.994 240.003 413.994 243.317L413.994 266.333C413.994 269.647 411.308 272.333 407.994 272.333L397.836 272.333L378.435 272.333C375.122 272.333 372.435 275.019 372.435 278.333L372.435 299.426C372.435 302.739 369.749 305.426 366.435 305.426L346.112 305.426C342.798 305.426 340.112 308.112 340.112 311.426L340.112 360.994C340.112 364.307 342.799 366.994 346.112 366.994L399.732 366.994" stroke="white" stroke-width="2"/>
<path id="Line 18" d="M-348.032 145.527L-287.847 145.527C-284.533 145.527 -281.847 148.214 -281.847 151.527L-281.847 169.542C-281.847 172.855 -279.16 175.542 -275.847 175.542L-198.573 175.542C-195.259 175.542 -192.573 178.228 -192.573 181.542L-192.573 205.713C-192.573 209.027 -189.887 211.713 -186.573 211.713L-157.304 211.713C-153.99 211.713 -151.304 214.399 -151.304 217.713L-151.304 253.428C-151.304 256.742 -153.99 259.428 -157.304 259.428L-181.955 259.428C-185.269 259.428 -187.955 262.114 -187.955 265.428L-187.955 290.561C-187.955 293.875 -185.269 296.561 -181.955 296.561L-167.465 296.561L-141.142 296.561C-137.828 296.561 -135.142 293.875 -135.142 290.561L-135.142 287.169C-135.142 283.855 -132.455 281.169 -129.142 281.169L-100.353 281.169C-97.0392 281.169 -94.3529 283.855 -94.3529 287.169L-94.3529 322.114C-94.3529 325.428 -91.6667 328.114 -88.3529 328.114L-18.3912 328.114C-15.0775 328.114 -12.3912 330.801 -12.3912 334.114L-12.3911 357.131C-12.391 360.444 -15.0774 363.131 -18.3911 363.131L-28.5486 363.131L-47.9496 363.131C-51.2633 363.131 -53.9496 365.817 -53.9496 369.131L-53.9495 390.223C-53.9495 393.537 -56.6358 396.223 -59.9495 396.223L-80.2727 396.223C-83.5864 396.223 -86.2727 398.91 -86.2727 402.223L-86.2726 451.791C-86.2726 455.105 -83.5863 457.791 -80.2726 457.791L-14 457.791" stroke="white" stroke-width="2"/>
<g id="Component 18">
<rect id="Rectangle 50" x="20.2039" y="26.5089" width="72.3537" height="35.8601" rx="4" fill="white"/>
<rect id="Rectangle 51" x="40.2166" y="65.4873" width="32.3282" height="3.11827" rx="1.55914" fill="white"/>
</g>
<rect id="Rectangle 58" x="32.5435" y="216.444" width="80.5623" height="39.7812" rx="3.5" stroke="black"/>
<rect id="Rectangle 59" x="54.9073" y="259.856" width="35.8346" height="2.94656" rx="1.47328" stroke="black"/>
<ellipse id="Ellipse 12" cx="95.8463" cy="65.9747" rx="1.97328" ry="2.63104" fill="white"/>
<ellipse id="Ellipse 14" cx="166.884" cy="255.41" rx="1.97328" ry="2.63104" fill="white"/>
</g>
</g>
</g>
</g>
</svg>
