<svg width="13" height="30" viewBox="0 0 13 30" fill="none" xmlns="http://www.w3.org/2000/svg">
<path id="Italic" d="M11.76 11.6C11.6133 12.4267 11.2667 13.1133 10.72 13.66C10.1867 14.1933 9.53333 14.58 8.76 14.82C9.41333 14.9267 9.94667 15.2467 10.36 15.78C10.7733 16.3 10.98 16.92 10.98 17.64C10.98 17.8533 10.96 18.06 10.92 18.26C10.8 18.9667 10.5067 19.6067 10.04 20.18C9.58667 20.74 8.98667 21.1867 8.24 21.52C7.49333 21.84 6.65333 22 5.72 22H0.52L3 8.06H8C9.25333 8.06 10.2 8.32667 10.84 8.86C11.4933 9.39333 11.82 10.0867 11.82 10.94C11.82 11.1533 11.8 11.3733 11.76 11.6ZM9.88 11.82C9.90667 11.7 9.92 11.5333 9.92 11.32C9.92 10.7467 9.72 10.3 9.32 9.98C8.92 9.66 8.34 9.5 7.58 9.5H4.56L3.74 14.12H6.8C7.64 14.12 8.33333 13.92 8.88 13.52C9.42667 13.1067 9.76 12.54 9.88 11.82ZM9.12 18.08C9.16 17.8933 9.18 17.72 9.18 17.56C9.18 16.9467 8.95333 16.46 8.5 16.1C8.04667 15.74 7.42667 15.56 6.64 15.56H3.48L2.6 20.56H5.82C6.71333 20.56 7.45333 20.34 8.04 19.9C8.62667 19.46 8.98667 18.8533 9.12 18.08Z" fill="white"/>
</svg>
