<svg width="13" height="30" viewBox="0 0 13 30" fill="none" xmlns="http://www.w3.org/2000/svg">
<path id="Regular" d="M8.94 14.86C9.68667 14.9933 10.32 15.3867 10.84 16.04C11.36 16.6933 11.62 17.4333 11.62 18.26C11.62 18.9667 11.4333 19.6067 11.06 20.18C10.7 20.74 10.1733 21.1867 9.48 21.52C8.78667 21.84 7.98 22 7.06 22H1.5V8.1H6.8C7.74667 8.1 8.56 8.26 9.24 8.58C9.92 8.9 10.4333 9.33333 10.78 9.88C11.1267 10.4133 11.3 11.0133 11.3 11.68C11.3 12.48 11.0867 13.1467 10.66 13.68C10.2333 14.2133 9.66 14.6067 8.94 14.86ZM3.78 13.94H6.6C7.34667 13.94 7.92667 13.7733 8.34 13.44C8.76667 13.0933 8.98 12.6 8.98 11.96C8.98 11.3333 8.76667 10.8467 8.34 10.5C7.92667 10.14 7.34667 9.96 6.6 9.96H3.78V13.94ZM6.86 20.14C7.63333 20.14 8.24 19.9533 8.68 19.58C9.12 19.2067 9.34 18.6867 9.34 18.02C9.34 17.34 9.10667 16.8 8.64 16.4C8.17333 16 7.55333 15.8 6.78 15.8H3.78V20.14H6.86Z" fill="white"/>
</svg>
