<svg width="44" height="46" viewBox="0 0 44 46" fill="none" xmlns="http://www.w3.org/2000/svg">
<path id="Settings" fill-rule="evenodd" clip-rule="evenodd" d="M25.413 2.47554C24.2367 -0.825178 19.5688 -0.825178 18.3925 2.47554C17.5721 4.7778 14.7947 5.68021 12.7777 4.29989C9.886 2.32096 6.10957 5.06469 7.09805 8.42642C7.78753 10.7712 6.07104 13.1338 3.62792 13.2027C0.125264 13.3014 -1.31721 17.7408 1.45847 19.8795C3.39452 21.3713 3.39452 24.2915 1.45847 25.7833C-1.31721 27.9219 0.125263 32.3614 3.62792 32.4601C6.07104 32.529 7.78753 34.8915 7.09805 37.2364C6.10957 40.5981 9.886 43.3418 12.7777 41.3629C14.7947 39.9826 17.5721 40.885 18.3925 43.1873C19.5688 46.488 24.2367 46.488 25.413 43.1873C26.2335 40.885 29.0108 39.9826 31.0278 41.3629C33.9195 43.3418 37.696 40.5981 36.7075 37.2364C36.018 34.8915 37.7345 32.529 40.1776 32.4601C43.6803 32.3614 45.1227 27.9219 42.3471 25.7833C40.411 24.2915 40.411 21.3713 42.3471 19.8795C45.1227 17.7408 43.6803 13.3014 40.1776 13.2027C37.7345 13.1338 36.018 10.7712 36.7075 8.42642C37.696 5.06469 33.9195 2.32095 31.0278 4.29989C29.0108 5.68021 26.2335 4.7778 25.413 2.47554ZM22.1904 32.3247C27.2745 32.3247 31.396 28.2032 31.396 23.1191C31.396 18.035 27.2745 13.9135 22.1904 13.9135C17.1063 13.9135 12.9848 18.035 12.9848 23.1191C12.9848 28.2032 17.1063 32.3247 22.1904 32.3247Z" fill="white"/>
</svg>
