<svg width="19" height="29" viewBox="0 0 19 29" fill="none" xmlns="http://www.w3.org/2000/svg">
<g id="sub">
<path id="A" d="M8.946 17.606H3.942L3.114 20H0.468L4.986 7.418H7.92L12.438 20H9.774L8.946 17.606ZM8.262 15.59L6.444 10.334L4.626 15.59H8.262Z" fill="white"/>
<path id="2" d="M13.164 22.104C13.932 21.464 14.544 20.932 15 20.508C15.456 20.076 15.836 19.628 16.14 19.164C16.444 18.7 16.596 18.244 16.596 17.796C16.596 17.388 16.5 17.068 16.308 16.836C16.116 16.604 15.82 16.488 15.42 16.488C15.02 16.488 14.712 16.624 14.496 16.896C14.28 17.16 14.168 17.524 14.16 17.988H12.528C12.56 17.028 12.844 16.3 13.38 15.804C13.924 15.308 14.612 15.06 15.444 15.06C16.356 15.06 17.056 15.304 17.544 15.792C18.032 16.272 18.276 16.908 18.276 17.7C18.276 18.324 18.108 18.92 17.772 19.488C17.436 20.056 17.052 20.552 16.62 20.976C16.188 21.392 15.624 21.896 14.928 22.488H18.468V23.88H12.54V22.632L13.164 22.104Z" fill="white"/>
</g>
</svg>
