<svg width="19" height="29" viewBox="0 0 19 29" fill="none" xmlns="http://www.w3.org/2000/svg">
<g id="top">
<path id="A" d="M8.946 19.606H3.942L3.114 22H0.468L4.986 9.418H7.92L12.438 22H9.774L8.946 19.606ZM8.262 17.59L6.444 12.334L4.626 17.59H8.262Z" fill="white"/>
<path id="2" d="M13.164 11.104C13.932 10.464 14.544 9.932 15 9.508C15.456 9.076 15.836 8.628 16.14 8.164C16.444 7.7 16.596 7.244 16.596 6.796C16.596 6.388 16.5 6.068 16.308 5.836C16.116 5.604 15.82 5.488 15.42 5.488C15.02 5.488 14.712 5.624 14.496 5.896C14.28 6.16 14.168 6.524 14.16 6.988H12.528C12.56 6.028 12.844 5.3 13.38 4.804C13.924 4.308 14.612 4.06 15.444 4.06C16.356 4.06 17.056 4.304 17.544 4.792C18.032 5.272 18.276 5.908 18.276 6.7C18.276 7.324 18.108 7.92 17.772 8.488C17.436 9.056 17.052 9.552 16.62 9.976C16.188 10.392 15.624 10.896 14.928 11.488H18.468V12.88H12.54V11.632L13.164 11.104Z" fill="white"/>
</g>
</svg>
